<svg id="Layer_1" data-name="Layer 1" xmlns="http://www.w3.org/2000/svg" viewBox="0 0 165.69 64.39"><defs><style>.cls-1{fill:#fff;}</style></defs><path class="cls-1" d="M101.08,64.13C96.07,62.92,91.7,65.87,89,61c-1.94-3.43-4.25-6.66-6.36-9.93-5.83,2.87-2.25,8.43-4.2,12.15-8.14,1.34-8.16,1.33-8.15-6.22V21.41h8.63V43.3c6.7-5.58,10.18-14.83,20.65-10.61-3.71,3.94-7.31,7.74-11,11.69Z"/><path class="cls-1" d="M115.85,64.37c-9.72,0-17.1-7-17.19-16.32s7.58-16.8,17.34-16.81c9.61,0,17.05,7.11,17.12,16.39C133.19,57.17,125.74,64.4,115.85,64.37Zm-8.3-16.91c-.12,5.22,3.45,9.24,8.31,9.35,4.68.12,8.38-3.59,8.55-8.57A8.7,8.7,0,0,0,116,39C111.16,38.86,107.67,42.37,107.55,47.46Z"/><path class="cls-1" d="M165.67,63.56h-8.91c0-5.63,0-11.05,0-16.48,0-4-.69-7.71-5.63-7.67s-5.69,3.68-5.65,7.72c0,5.29,0,10.59,0,16.26H137V32c3.16.8,7.29-2.61,9.07,3.13,1.15-.79,2.28-1.7,3.53-2.4,6.8-3.86,14.75-.08,15.89,7.6a42.36,42.36,0,0,1,.18,6C165.69,51.91,165.67,57.53,165.67,63.56Z"/><path class="cls-1" d="M65.24,63.79c-3.37-1-7.65,2.54-9.1-3.38-1.38.91-2.67,1.92-4.1,2.67-6.56,3.42-14.61-.15-15.23-7.36-.65-7.7-.14-15.51-.14-23.55h8.64c0,5.67,0,11.12,0,16.56,0,3.71.56,7.18,5.37,7.4,3.89.18,5.84-2.26,5.9-7.44.07-5.44,0-10.87,0-16.55h8.62Z"/><path class="cls-1" d="M20.09,38.29c2.17-3.44,4-6.38,5.88-9.33,4.56-7.33,4.55-7.33,14.17-6.69-2.24,3.57-4,7-6.37,10-7.09,9.08-11.82,18.8-8.62,31.1h-9c-2.05-7,1.68-15-3.8-21.83C7.66,35.82,4.11,29.16,0,22.77c8.85-1.95,9.41-1.7,13.81,5.47C15.79,31.47,17.82,34.66,20.09,38.29Z"/><path class="cls-1" d="M106.41,11.25c0-1.77,0-3.06,0-4.34a10.34,10.34,0,0,1,.41-4.46l5.49,7C113.76,5.74,114.75,3.19,116,0l3.25,8.81,6.19-6.63v9l8.37-3.62-3.46,8.14H138l.56.8-6.4,4.14,1,1.68,7.76,2.82c-6.09,3.63-6.09,3.63-14.62-4.36l-3.62,2.36L116.13,16c-2.09,2.76-4,5.23-5.9,7.76l-4.45-3c-4.32,2.75-6.93,11.34-14.7,4.55l8.37-2.92L92.82,16.3h9.09L97.84,7.57Z"/><path class="cls-1" d="M107.55,47.46c.12-5.09,3.61-8.6,8.47-8.5a8.7,8.7,0,0,1,8.39,9.28c-.17,5-3.87,8.69-8.55,8.57C111,56.7,107.43,52.68,107.55,47.46Z"/></svg>